PathFileType	3	(X/Y/Z)	C:\Users\koon_\Desktop\
DataRate	CameraRate	NumFrames	NumMarkers	Units	OrigDataRate	OrigDataStartFrame	OrigNumFrames
100.0	100.0	4	27	mm	100.0	349	2788	
Frame#	Time	get:LFHD			get:RFHD			get:LBHD			get:RBHD			get:C7			get:T10			get:CLAV			get:STRN			get:RBAK			get:LSHO			get:LUPA			get:LELB			get:LFRA			get:LWRA			get:LWRB			get:LFIN			get:RSHO			get:RUPA			get:RELB			get:RFRA			get:RWRA			get:RWRB			get:RFIN			get:LASI			get:RASI			get:LPSI			get:RPSI			
		X1	Y1	Z1	X2	Y2	Z2	X3	Y3	Z3	X4	Y4	Z4	X5	Y5	Z5	X6	Y6	Z6	X7	Y7	Z7	X8	Y8	Z8	X9	Y9	Z9	X10	Y10	Z10	X11	Y11	Z11	X12	Y12	Z12	X13	Y13	Z13	X14	Y14	Z14	X15	Y15	Z15	X16	Y16	Z16	X17	Y17	Z17	X18	Y18	Z18	X19	Y19	Z19	X20	Y20	Z20	X21	Y21	Z21	X22	Y22	Z22	X23	Y23	Z23	X24	Y24	Z24	X25	Y25	Z25	X26	Y26	Z26	X27	Y27	Z27	
349	3.48	45.068993	1521.3289	-17.828352	-101.37815	1526.7576	-25.684933	50.807003	1534.7983	-155.52986	-101.07054	1533.51	-159.86804	-24.600964	1325.8865	-220.72261	-16.953945	1112.6461	-252.17303	-20.31094	1234.9916	-29.212978	-19.846426	1080.7123	13.380302	-116.38696	1252.2926	-244.43501	139.86874	1326.5989	-146.30676	193.00198	1114.6174	-101.74068	231.91869	1006.2974	-167.6403	214.8828	946.2298	-90.222832	184.89136	776.6297	-70.865662	255.93448	780.0827	-92.859085	241.06055	708.58771	-59.108742	-163.21765	1331.0985	-121.98417	-234.91168	1208.6432	-108.58514	-280.14926	998.98883	-168.76128	-252.85378	861.90479	-83.769348	-246.54103	764.62384	-75.491516	-307.96277	779.01495	-115.62222	-289.86636	700.58466	-66.449394	119.99243	890.8548	-55.048859	-171.80698	909.51099	-57.910969	30.567608	932.41614	-239.0202	-57.273567	932.14124	-244.08273
350	3.49	45.382694	1521.355	-17.96213	-101.07742	1526.8842	-25.563292	50.904381	1534.7382	-155.70036	-101.00697	1533.5225	-159.70384	-24.488026	1325.9432	-220.67352	-16.807518	1112.7316	-252.18773	-20.364895	1235.0173	-29.156485	-19.946321	1080.7313	13.368919	-116.26055	1252.374	-244.52879	139.98564	1326.6066	-146.07639	192.84903	1114.5992	-101.34236	231.38707	1006.0989	-167.21136	214.27336	946.15448	-89.740623	183.63028	776.82452	-70.16227	254.60318	779.76849	-92.296974	239.53009	708.50342	-58.331955	-163.20049	1331.1083	-122.04523	-234.77084	1208.5896	-108.53635	-279.54248	998.73938	-168.3723	-251.70985	861.7832	-83.333321	-244.99745	764.56439	-74.926048	-306.47165	778.64465	-115.18995	-288.15518	700.45215	-65.734314	119.88817	890.90936	-54.964508	-171.85835	909.51929	-57.955345	30.590904	932.47968	-239.12338	-57.294083	932.14813	-244.11298
351	3.5	45.709766	1521.3785	-18.176693	-100.74876	1527.0157	-25.45546	51.025776	1534.6844	-155.85895	-100.91349	1533.5591	-159.62833	-24.30426	1326.0103	-220.64606	-16.67326	1112.8311	-252.28647	-20.363493	1235.0162	-29.068186	-19.990679	1080.7549	13.246816	-116.10722	1252.4163	-244.52884	140.09938	1326.5955	-145.82137	192.59177	1114.5122	-100.93082	230.79092	1005.8602	-166.8277	213.57741	945.98163	-89.240479	182.27086	776.95087	-69.528687	253.18018	779.47113	-91.795761	237.88712	708.40668	-57.565067	-163.1199	1331.1392	-122.08205	-234.57263	1208.5831	-108.40846	-278.8187	998.53754	-168.0336	-250.40164	861.75525	-82.919426	-243.30408	764.56769	-74.31881	-304.87491	778.31903	-114.54785	-286.19656	700.32031	-64.930687	119.80322	890.93994	-54.961285	-171.95036	909.58508	-57.970623	30.556917	932.39178	-238.92226	-57.275528	932.14246	-244.08629
352	3.51	46.084518	1521.4537	-18.336344	-100.38145	1527.1394	-25.375648	51.134716	1534.6631	-156.04996	-100.81322	1533.6028	-159.49255	-24.14867	1326.0607	-220.58128	-16.523312	1112.906	-252.25052	-20.361042	1235.0999	-28.987164	-20.11022	1080.7583	13.270141	-115.91365	1252.5271	-244.61571	140.26077	1326.5518	-145.60141	192.2854	1114.3914	-100.51464	230.04791	1005.5448	-166.4673	212.81281	945.79083	-88.845001	180.72401	776.99023	-69.047539	251.65858	779.12219	-91.355637	236.02467	708.1701	-57.035049	-162.99593	1331.229	-122.10558	-234.35619	1208.6118	-108.33165	-278.14011	998.38446	-167.63423	-248.9288	861.73773	-82.457108	-241.43307	764.67761	-73.849884	-303.14612	778.03961	-113.80181	-284.09232	700.22791	-64.211304	119.732	891.04462	-54.95673	-172.05365	909.65485	-58.04213	30.592804	932.45447	-238.96706	-57.223236	932.16241	-244.13528
